<svg width="69" height="70" viewBox="0 0 69 70" fill="none" xmlns="http://www.w3.org/2000/svg">
<path d="M50.312 64.5768C53.2803 62.0893 55.9419 59.3319 58.0751 56.2702C60.2494 53.2233 61.7093 49.8301 63.1221 46.4911C63.6886 45.1435 65.2402 44.5108 66.5877 45.0771C67.9351 45.6438 68.5682 47.1953 68.0016 48.5429C67.9866 48.5788 67.964 48.6281 67.9475 48.6628C66.1613 52.3814 63.4749 55.6306 60.5485 58.4247C57.5958 61.2188 54.2541 63.4794 50.7335 65.2238C50.5411 65.3192 50.3079 65.2406 50.2126 65.0481C50.1313 64.8839 50.1776 64.6894 50.312 64.5768Z" fill="url(#paint0_linear_255_16)"/>
<path d="M20.4309 2.37793C16.3257 9.87488 14.2534 18.4601 14.3973 25.6866C14.6264 37.1879 25.6142 44.6981 35.2488 49.4379C28.6778 49.426 21.5802 48.0325 16.0544 51.095C10.5286 54.1575 5.07632 59.0249 0.791016 65.9332C6.30139 69.1934 13.9486 70.3979 21.4634 69.8868C29.3348 69.3514 36.6838 67.1166 43.1805 63.5672C46.1299 61.9558 50.3397 44.9836 50.1731 42.5335C48.9121 23.9945 40.3068 8.19514 20.4309 2.37793Z" fill="url(#paint1_linear_255_16)"/>
<path d="M52.437 56.2153C47.2977 62.3703 39.6283 66.3515 30.9988 66.9385C19.6852 67.708 8.69022 61.0098 2.65967 52.3275C8.13059 46.3151 18.9612 43.0688 26.411 43.4898C33.8607 43.9107 40.0765 47.5869 46.6774 51.7469C39.4082 46.5193 30.863 39.8423 29.7251 30.2434C28.7559 22.0677 34.8344 9.24367 47.484 0C60.9515 10.3484 66.5835 39.273 52.437 56.2153Z" fill="url(#paint2_linear_255_16)"/>
<defs>
<linearGradient id="paint0_linear_255_16" x1="27.4933" y1="33.2667" x2="61.187" y2="57.0179" gradientUnits="userSpaceOnUse">
<stop stop-color="#FF2300"/>
<stop offset="1" stop-color="#E81C1E"/>
</linearGradient>
<linearGradient id="paint1_linear_255_16" x1="8.63169" y1="32.8479" x2="33.7841" y2="45.1507" gradientUnits="userSpaceOnUse">
<stop stop-color="#E81C1E"/>
<stop offset="1" stop-color="#B80523"/>
</linearGradient>
<linearGradient id="paint2_linear_255_16" x1="23.6358" y1="24.6983" x2="56.4304" y2="59.4221" gradientUnits="userSpaceOnUse">
<stop stop-color="#FF2300"/>
<stop offset="1" stop-color="#E81C1E"/>
</linearGradient>
</defs>
</svg>
